# xmcd
#
# Track frame offsets: 
#        150
#        19549
#        36416
#        58389
#        70460
#        92635
#        111092
#        124502
#        140164
#        153587
#        169287
#        189528
#
# Disc length: 2594 seconds
#
# Revision: 0
# Processed by: cddbd v1.5.2PL0 Copyright (c) Steve Scherf et al.
# Submitted via: ExactAudioCopy v1.2
#
DISCID=b00a200c
DTITLE=Peter Ward - Train to Key Biscayne
DYEAR=2019
DGENRE=Blues
TTITLE0=The Luther Johnson Thing (feat. Luther Johnson, Sugar Ray Norc
TTITLE0=ia and Anthony Geraci)
TTITLE1=A Westerly Sunday Night (feat. Sugar Ray Norcia)
TTITLE2=When You Are Mine (feat. Sugar Ray Norcia)
TTITLE3=Train to Key Biscayne (feat. Johnny Nicholas)
TTITLE4=I Saw Your Home (feat. Michelle Willson)
TTITLE5=Blues Elixir (Ronnie's Here) (feat. Ronnie Earl and Sugar Ray No
TTITLE5=rcia)
TTITLE6=Supposedly
TTITLE7=Change (Ain't Never for the Good) (feat. Johnny Nicholas, Suga
TTITLE7=r Ray Norcia and Anthony Geraci)
TTITLE8=As Long as I Have a Chance (feat. Sugar Ray Norcia and Anthony G
TTITLE8=eraci)
TTITLE9=Coffee Song (feat. Michelle Willson)
TTITLE10=Something Always Slows Me Down (feat. Sugar Ray Norcia and Anth
TTITLE10=ony Geraci)
TTITLE11=Anthony's Son
EXTD=
EXTT0=
EXTT1=
EXTT2=
EXTT3=
EXTT4=
EXTT5=
EXTT6=
EXTT7=
EXTT8=
EXTT9=
EXTT10=
EXTT11=
PLAYORDER=
